<svg xmlns="http://www.w3.org/2000/svg" width="760" height="420" viewBox="0 0 760 420" font-family="Inter,Arial,sans-serif">
<rect width="760" height="420" fill="#06121f"/>
<text x="70" y="28" fill="#eef5fb" font-size="17" font-weight="700">Cumulative cash flow — Conservative scenario (Lean vs Staffed)</text>
<line x1="70.0" y1="50" x2="70.0" y2="370" stroke="#19324a" stroke-width="0.5"/><text x="70.0" y="388" fill="#9db0c0" font-size="11" text-anchor="middle">M1</text><line x1="130.9" y1="50" x2="130.9" y2="370" stroke="#19324a" stroke-width="0.5"/><text x="130.9" y="388" fill="#9db0c0" font-size="11" text-anchor="middle">M2</text><line x1="191.8" y1="50" x2="191.8" y2="370" stroke="#19324a" stroke-width="0.5"/><text x="191.8" y="388" fill="#9db0c0" font-size="11" text-anchor="middle">M3</text><line x1="252.7" y1="50" x2="252.7" y2="370" stroke="#19324a" stroke-width="0.5"/><text x="252.7" y="388" fill="#9db0c0" font-size="11" text-anchor="middle">M4</text><line x1="313.6" y1="50" x2="313.6" y2="370" stroke="#19324a" stroke-width="0.5"/><text x="313.6" y="388" fill="#9db0c0" font-size="11" text-anchor="middle">M5</text><line x1="374.5" y1="50" x2="374.5" y2="370" stroke="#19324a" stroke-width="0.5"/><text x="374.5" y="388" fill="#9db0c0" font-size="11" text-anchor="middle">M6</text><line x1="435.5" y1="50" x2="435.5" y2="370" stroke="#19324a" stroke-width="0.5"/><text x="435.5" y="388" fill="#9db0c0" font-size="11" text-anchor="middle">M7</text><line x1="496.4" y1="50" x2="496.4" y2="370" stroke="#19324a" stroke-width="0.5"/><text x="496.4" y="388" fill="#9db0c0" font-size="11" text-anchor="middle">M8</text><line x1="557.3" y1="50" x2="557.3" y2="370" stroke="#19324a" stroke-width="0.5"/><text x="557.3" y="388" fill="#9db0c0" font-size="11" text-anchor="middle">M9</text><line x1="618.2" y1="50" x2="618.2" y2="370" stroke="#19324a" stroke-width="0.5"/><text x="618.2" y="388" fill="#9db0c0" font-size="11" text-anchor="middle">M10</text><line x1="679.1" y1="50" x2="679.1" y2="370" stroke="#19324a" stroke-width="0.5"/><text x="679.1" y="388" fill="#9db0c0" font-size="11" text-anchor="middle">M11</text><line x1="740.0" y1="50" x2="740.0" y2="370" stroke="#19324a" stroke-width="0.5"/><text x="740.0" y="388" fill="#9db0c0" font-size="11" text-anchor="middle">M12</text><line x1="70" y1="370.0" x2="740" y2="370.0" stroke="#19324a" stroke-width="0.5"/><text x="62" y="374.0" fill="#9db0c0" font-size="11" text-anchor="end">$-144k</text><line x1="70" y1="290.0" x2="740" y2="290.0" stroke="#19324a" stroke-width="0.5"/><text x="62" y="294.0" fill="#9db0c0" font-size="11" text-anchor="end">$-75k</text><line x1="70" y1="210.0" x2="740" y2="210.0" stroke="#19324a" stroke-width="0.5"/><text x="62" y="214.0" fill="#9db0c0" font-size="11" text-anchor="end">$-7k</text><line x1="70" y1="130.0" x2="740" y2="130.0" stroke="#19324a" stroke-width="0.5"/><text x="62" y="134.0" fill="#9db0c0" font-size="11" text-anchor="end">$61k</text><line x1="70" y1="50.0" x2="740" y2="50.0" stroke="#19324a" stroke-width="0.5"/><text x="62" y="54.0" fill="#9db0c0" font-size="11" text-anchor="end">$129k</text>
<line x1="70" y1="201.6" x2="740" y2="201.6" stroke="#e3b765" stroke-width="1.5" stroke-dasharray="5 4"/>
<text x="740" y="195.6" fill="#e3b765" font-size="11" text-anchor="end">break-even ($0)</text>
<polyline fill="none" stroke="#ff8a6e" stroke-width="3" points="70.0,221.1 130.9,240.0 191.8,258.0 252.7,275.0 313.6,290.9 374.5,305.4 435.5,318.3 496.4,329.5 557.3,338.4 618.2,344.7 679.1,347.9 740.0,347.6"/><circle cx="70.0" cy="221.1" r="3.2" fill="#ff8a6e"/><circle cx="130.9" cy="240.0" r="3.2" fill="#ff8a6e"/><circle cx="191.8" cy="258.0" r="3.2" fill="#ff8a6e"/><circle cx="252.7" cy="275.0" r="3.2" fill="#ff8a6e"/><circle cx="313.6" cy="290.9" r="3.2" fill="#ff8a6e"/><circle cx="374.5" cy="305.4" r="3.2" fill="#ff8a6e"/><circle cx="435.5" cy="318.3" r="3.2" fill="#ff8a6e"/><circle cx="496.4" cy="329.5" r="3.2" fill="#ff8a6e"/><circle cx="557.3" cy="338.4" r="3.2" fill="#ff8a6e"/><circle cx="618.2" cy="344.7" r="3.2" fill="#ff8a6e"/><circle cx="679.1" cy="347.9" r="3.2" fill="#ff8a6e"/><circle cx="740.0" cy="347.6" r="3.2" fill="#ff8a6e"/>
<polyline fill="none" stroke="#1fc585" stroke-width="3" points="70.0,198.2 130.9,194.0 191.8,189.1 252.7,183.1 313.6,176.0 374.5,167.6 435.5,157.6 496.4,145.7 557.3,131.7 618.2,115.0 679.1,95.3 740.0,72.1"/><circle cx="70.0" cy="198.2" r="3.2" fill="#1fc585"/><circle cx="130.9" cy="194.0" r="3.2" fill="#1fc585"/><circle cx="191.8" cy="189.1" r="3.2" fill="#1fc585"/><circle cx="252.7" cy="183.1" r="3.2" fill="#1fc585"/><circle cx="313.6" cy="176.0" r="3.2" fill="#1fc585"/><circle cx="374.5" cy="167.6" r="3.2" fill="#1fc585"/><circle cx="435.5" cy="157.6" r="3.2" fill="#1fc585"/><circle cx="496.4" cy="145.7" r="3.2" fill="#1fc585"/><circle cx="557.3" cy="131.7" r="3.2" fill="#1fc585"/><circle cx="618.2" cy="115.0" r="3.2" fill="#1fc585"/><circle cx="679.1" cy="95.3" r="3.2" fill="#1fc585"/><circle cx="740.0" cy="72.1" r="3.2" fill="#1fc585"/>
<rect x="80" y="58" width="12" height="12" fill="#1fc585"/><text x="98" y="68" fill="#eef5fb" font-size="12">Lean (cloud + AI)</text>
<rect x="220" y="58" width="12" height="12" fill="#ff8a6e"/><text x="238" y="68" fill="#eef5fb" font-size="12">Staffed + office</text>
</svg>
