<svg xmlns="http://www.w3.org/2000/svg" width="760" height="420" viewBox="0 0 760 420" font-family="Inter,Arial,sans-serif">
<rect width="760" height="420" fill="#06121f"/>
<text x="70" y="28" fill="#eef5fb" font-size="17" font-weight="700">Cumulative cash flow — Base scenario (Lean vs Staffed)</text>
<line x1="70.0" y1="50" x2="70.0" y2="370" stroke="#19324a" stroke-width="0.5"/><text x="70.0" y="388" fill="#9db0c0" font-size="11" text-anchor="middle">M1</text><line x1="130.9" y1="50" x2="130.9" y2="370" stroke="#19324a" stroke-width="0.5"/><text x="130.9" y="388" fill="#9db0c0" font-size="11" text-anchor="middle">M2</text><line x1="191.8" y1="50" x2="191.8" y2="370" stroke="#19324a" stroke-width="0.5"/><text x="191.8" y="388" fill="#9db0c0" font-size="11" text-anchor="middle">M3</text><line x1="252.7" y1="50" x2="252.7" y2="370" stroke="#19324a" stroke-width="0.5"/><text x="252.7" y="388" fill="#9db0c0" font-size="11" text-anchor="middle">M4</text><line x1="313.6" y1="50" x2="313.6" y2="370" stroke="#19324a" stroke-width="0.5"/><text x="313.6" y="388" fill="#9db0c0" font-size="11" text-anchor="middle">M5</text><line x1="374.5" y1="50" x2="374.5" y2="370" stroke="#19324a" stroke-width="0.5"/><text x="374.5" y="388" fill="#9db0c0" font-size="11" text-anchor="middle">M6</text><line x1="435.5" y1="50" x2="435.5" y2="370" stroke="#19324a" stroke-width="0.5"/><text x="435.5" y="388" fill="#9db0c0" font-size="11" text-anchor="middle">M7</text><line x1="496.4" y1="50" x2="496.4" y2="370" stroke="#19324a" stroke-width="0.5"/><text x="496.4" y="388" fill="#9db0c0" font-size="11" text-anchor="middle">M8</text><line x1="557.3" y1="50" x2="557.3" y2="370" stroke="#19324a" stroke-width="0.5"/><text x="557.3" y="388" fill="#9db0c0" font-size="11" text-anchor="middle">M9</text><line x1="618.2" y1="50" x2="618.2" y2="370" stroke="#19324a" stroke-width="0.5"/><text x="618.2" y="388" fill="#9db0c0" font-size="11" text-anchor="middle">M10</text><line x1="679.1" y1="50" x2="679.1" y2="370" stroke="#19324a" stroke-width="0.5"/><text x="679.1" y="388" fill="#9db0c0" font-size="11" text-anchor="middle">M11</text><line x1="740.0" y1="50" x2="740.0" y2="370" stroke="#19324a" stroke-width="0.5"/><text x="740.0" y="388" fill="#9db0c0" font-size="11" text-anchor="middle">M12</text><line x1="70" y1="370.0" x2="740" y2="370.0" stroke="#19324a" stroke-width="0.5"/><text x="62" y="374.0" fill="#9db0c0" font-size="11" text-anchor="end">$-76k</text><line x1="70" y1="290.0" x2="740" y2="290.0" stroke="#19324a" stroke-width="0.5"/><text x="62" y="294.0" fill="#9db0c0" font-size="11" text-anchor="end">$30k</text><line x1="70" y1="210.0" x2="740" y2="210.0" stroke="#19324a" stroke-width="0.5"/><text x="62" y="214.0" fill="#9db0c0" font-size="11" text-anchor="end">$136k</text><line x1="70" y1="130.0" x2="740" y2="130.0" stroke="#19324a" stroke-width="0.5"/><text x="62" y="134.0" fill="#9db0c0" font-size="11" text-anchor="end">$242k</text><line x1="70" y1="50.0" x2="740" y2="50.0" stroke="#19324a" stroke-width="0.5"/><text x="62" y="54.0" fill="#9db0c0" font-size="11" text-anchor="end">$348k</text>
<line x1="70" y1="312.4" x2="740" y2="312.4" stroke="#e3b765" stroke-width="1.5" stroke-dasharray="5 4"/>
<text x="740" y="306.4" fill="#e3b765" font-size="11" text-anchor="end">break-even ($0)</text>
<polyline fill="none" stroke="#ff8a6e" stroke-width="3" points="70.0,322.4 130.9,331.2 191.8,338.6 252.7,344.1 313.6,347.4 374.5,347.9 435.5,345.0 496.4,337.9 557.3,325.8 618.2,307.4 679.1,281.0 740.0,244.8"/><circle cx="70.0" cy="322.4" r="3.2" fill="#ff8a6e"/><circle cx="130.9" cy="331.2" r="3.2" fill="#ff8a6e"/><circle cx="191.8" cy="338.6" r="3.2" fill="#ff8a6e"/><circle cx="252.7" cy="344.1" r="3.2" fill="#ff8a6e"/><circle cx="313.6" cy="347.4" r="3.2" fill="#ff8a6e"/><circle cx="374.5" cy="347.9" r="3.2" fill="#ff8a6e"/><circle cx="435.5" cy="345.0" r="3.2" fill="#ff8a6e"/><circle cx="496.4" cy="337.9" r="3.2" fill="#ff8a6e"/><circle cx="557.3" cy="325.8" r="3.2" fill="#ff8a6e"/><circle cx="618.2" cy="307.4" r="3.2" fill="#ff8a6e"/><circle cx="679.1" cy="281.0" r="3.2" fill="#ff8a6e"/><circle cx="740.0" cy="244.8" r="3.2" fill="#ff8a6e"/>
<polyline fill="none" stroke="#1fc585" stroke-width="3" points="70.0,307.6 130.9,301.7 191.8,294.3 252.7,285.0 313.6,273.5 374.5,259.3 435.5,241.6 496.4,219.7 557.3,194.0 618.2,161.9 679.1,121.9 740.0,72.1"/><circle cx="70.0" cy="307.6" r="3.2" fill="#1fc585"/><circle cx="130.9" cy="301.7" r="3.2" fill="#1fc585"/><circle cx="191.8" cy="294.3" r="3.2" fill="#1fc585"/><circle cx="252.7" cy="285.0" r="3.2" fill="#1fc585"/><circle cx="313.6" cy="273.5" r="3.2" fill="#1fc585"/><circle cx="374.5" cy="259.3" r="3.2" fill="#1fc585"/><circle cx="435.5" cy="241.6" r="3.2" fill="#1fc585"/><circle cx="496.4" cy="219.7" r="3.2" fill="#1fc585"/><circle cx="557.3" cy="194.0" r="3.2" fill="#1fc585"/><circle cx="618.2" cy="161.9" r="3.2" fill="#1fc585"/><circle cx="679.1" cy="121.9" r="3.2" fill="#1fc585"/><circle cx="740.0" cy="72.1" r="3.2" fill="#1fc585"/>
<rect x="80" y="58" width="12" height="12" fill="#1fc585"/><text x="98" y="68" fill="#eef5fb" font-size="12">Lean (cloud + AI)</text>
<rect x="220" y="58" width="12" height="12" fill="#ff8a6e"/><text x="238" y="68" fill="#eef5fb" font-size="12">Staffed + office</text>
</svg>
